<?xml version="1.0" encoding="utf-8"?>
<!-- Generator: Adobe Illustrator 19.0.0, SVG Export Plug-In . SVG Version: 6.00 Build 0)  -->
<svg version="1.1" id="Layer_1" xmlns="http://www.w3.org/2000/svg" xmlns:xlink="http://www.w3.org/1999/xlink" x="0px" y="0px"
	 viewBox="0 0 699 211" style="enable-background:new 0 0 699 211;" xml:space="preserve">
<style type="text/css">
	.st0{fill:#FFFFFF;}
	.st1{fill:#FFFFFF;}
	.st2{fill:#FFFFFF;}
	.st3{fill:#FFFFFF;}
	.st4{fill:#FFFFFF;}
	.st5{fill:#FFFFFF;}
	.st6{fill:#FFFFFF;}
	.st7{fill:#013A51;}
</style>
<path id="XMLID_329_" class="st0" d="M1929.3-31.2c0-0.1,0-0.1,0-0.2c6.9,0,13.8,0,20.7,0c1.3,0,3-0.6,3.8,0.2
	c0.6,0.7,0.2,2.4,0.2,3.7c0,7.5,0,15,0,22.5c0,0.5,0,0.9-0.1,1.4c0,0.4-0.1,0.7-0.1,1.1c-0.1,0-0.1,0-0.2,0c0-0.5,0-0.9,0-1.4
	c0-8.6,0-17.3,0-25.9c0-1-0.3-1.4-1.3-1.4c-7.6,0-15.2,0-22.7,0C1929.5-31.1,1929.4-31.1,1929.3-31.2z"/>
<path id="XMLID_326_" class="st1" d="M1884.5,47c-0.2,0.4-0.6,0.3-0.9,0.3c-5,0-10,0-15,0c-0.3,0-0.5,0-0.7-0.2
	c5.1,0,10.1,0,15.2-0.1C1883.5,47.1,1884,47,1884.5,47z"/>
<path id="XMLID_321_" class="st2" d="M1872.5,9.2c-1.8,0.4-3.6,0.3-5.4,0C1868.9,9.1,1870.7,9.1,1872.5,9.2z"/>
<path id="XMLID_315_" class="st3" d="M1871.5,87.5c-0.4,0.3-0.9,0.4-1.3-0.1C1870.6,87.5,1871,87.5,1871.5,87.5z"/>
<path id="XMLID_306_" class="st4" d="M1929.3-31.2c0.1,0,0.2,0,0.2,0c0,9.4,0,18.9,0,28.3c-0.1,0-0.2,0-0.2,0
	C1929.3-12.3,1929.3-21.8,1929.3-31.2z"/>
<path id="XMLID_13_" class="st5" d="M256.8,172.8l-34.6-92.1h26.2l20.7,65.2l1.2,5.3l1.2-5.3l20.5-65.2h25.8l-34.6,92.1H256.8z"/>
<path id="XMLID_16_" class="st5" d="M356.6,172.8h-24.9V37.7h24.9V172.8z M391.2,112.5l35.5,60.2h-27.4l-21-41.5l-1.2-4.3l-2.5,3.6
	l-9.6,10.2c-1.3-8.2-0.8-15.7,1.6-22.5c2.4-6.8,5.7-12.8,10-18.2l16-19.4h28.7L391.2,112.5z"/>
<path id="XMLID_19_" class="st5" d="M498.9,116.3c0.4-2.7,0.2-5.3-0.4-7.8c-0.6-2.5-1.6-4.7-2.9-6.6c-1.4-1.9-3.1-3.4-5.2-4.5
	c-2.1-1.1-4.5-1.7-7.2-1.7c-2.5,0-5,0.5-7.4,1.6c-2.4,1.1-4.7,2.8-6.7,5.1c-2,2.3-3.7,5.3-4.9,8.9c-1.2,3.6-1.9,8-1.9,13.1
	c0,10.3,2.3,18.3,6.9,24c4.6,5.6,10.7,8.5,18.2,8.5c4.2,0,8.2-0.5,12.2-1.5c4-1,8.6-2.7,13.8-5.1l6.2,16.6
	c-6.4,3.1-12.4,5.3-18.1,6.5c-5.6,1.2-11.3,1.9-16.8,1.9c-8.2,0-15.2-1.5-21.1-4.5s-10.8-6.8-14.6-11.5c-3.9-4.7-6.7-10-8.6-15.9
	c-1.8-5.9-2.8-11.9-2.8-18c0-7.4,1.2-14,3.7-19.8c2.4-5.8,5.8-10.7,10-14.7c4.2-4,9.2-7,14.9-9.2c5.7-2.1,11.8-3.2,18.2-3.2
	c6.5,0,12.5,1.3,18,3.9c5.5,2.6,9.9,6.2,13.2,10.9c3.3,4.6,5.4,10.2,6.1,16.7c0.8,6.5-0.2,13.5-2.8,21.1h-49.9
	c1.3-4.2,3.2-7.6,5.6-10.4c2.4-2.8,5.2-4.2,8.3-4.2H498.9z"/>
<path id="XMLID_21_" class="st5" d="M599.4,116.3c0.4-2.7,0.2-5.3-0.4-7.8c-0.6-2.5-1.6-4.7-2.9-6.6c-1.4-1.9-3.1-3.4-5.2-4.5
	c-2.1-1.1-4.5-1.7-7.2-1.7c-2.5,0-5,0.5-7.4,1.6c-2.4,1.1-4.7,2.8-6.7,5.1c-2,2.3-3.7,5.3-4.9,8.9c-1.2,3.6-1.9,8-1.9,13.1
	c0,10.3,2.3,18.3,6.9,24c4.6,5.6,10.7,8.5,18.2,8.5c4.2,0,8.2-0.5,12.2-1.5c4-1,8.6-2.7,13.8-5.1l6.2,16.6
	c-6.4,3.1-12.4,5.3-18.1,6.5c-5.6,1.2-11.3,1.9-16.8,1.9c-8.2,0-15.2-1.5-21.1-4.5s-10.8-6.8-14.6-11.5c-3.9-4.7-6.7-10-8.6-15.9
	c-1.8-5.9-2.8-11.9-2.8-18c0-7.4,1.2-14,3.7-19.8c2.4-5.8,5.8-10.7,10-14.7c4.2-4,9.2-7,14.9-9.2c5.7-2.1,11.8-3.2,18.2-3.2
	c6.5,0,12.5,1.3,18,3.9c5.5,2.6,9.9,6.2,13.2,10.9c3.3,4.6,5.4,10.2,6.1,16.7c0.8,6.5-0.2,13.5-2.8,21.1h-49.9
	c1.3-4.2,3.2-7.6,5.6-10.4c2.4-2.8,5.2-4.2,8.3-4.2H599.4z"/>
<circle id="XMLID_9_" class="st6" cx="106.2" cy="105.2" r="91.1"/>
<path id="XMLID_14_" class="st5" d="M25.5,147.6c15.3,28.9,45.6,48.7,80.6,48.7c50.3,0,91.1-40.8,91.1-91.1
	c0-14.7-3.5-28.5-9.6-40.8L25.5,147.6z"/>
<g id="XMLID_170_">
	<path id="XMLID_176_" class="st7" d="M80,109.6c-4.1-13.7-8.2-27.4-12.4-41c-4.2,13.7-8.3,27.4-12.5,41.1c-0.7,1.6-1,3.3-1,5.1
		c0,7.3,6,13.2,13.5,13.2c7.4,0,13.5-5.9,13.5-13.2C81.1,112.9,80.7,111.2,80,109.6z M76.8,111.2c-6.1,0-12.3,0-18.4,0
		c-0.3,0-0.5-0.3-0.4-0.6c3.1-10.1,6.2-20.1,9.3-30.2c0.1-0.4,0.8-0.4,0.9,0l9.1,30.2C77.3,110.9,77.1,111.2,76.8,111.2z"/>
	<path id="XMLID_172_" class="st7" d="M159.6,110.1c-4.1-13.7-8.2-27.4-12.4-41c-4.2,13.7-8.3,27.4-12.5,41.1c-0.7,1.6-1,3.3-1,5.1
		c0,7.3,6,13.2,13.5,13.2c7.4,0,13.5-5.9,13.5-13.2C160.6,113.4,160.3,111.7,159.6,110.1z M156.4,111.7c-6.1,0-12.3,0-18.4,0
		c-0.3,0-0.5-0.3-0.4-0.6c3.1-10.1,6.2-20.1,9.3-30.2c0.1-0.4,0.8-0.4,0.9,0l9.1,30.2C156.9,111.4,156.7,111.7,156.4,111.7z"/>
	<path id="XMLID_181_" class="st7" d="M117.2,76.7c10-2.5,20.1-4.9,30.1-7.4c-1.2-2.6-2.5-5.2-3.7-7.7c-10.8,2.1-21.5,4.2-32.3,6.2
		c-2.5,0-4.9,0-7.4,0c-10.5-2-21-4-31.5-6c-1.7,2.5-3.3,5-5,7.5c10.2,2.5,20.3,5,30.5,7.5c2,2.9,4,5.7,6,8.6
		c-3.2,20.3-6.5,40.7-9.7,61c4.4,8.3,8.8,16.7,13.3,25c4.5-8.3,8.9-16.7,13.4-25c-3.3-20.3-6.6-40.7-9.8-61
		C113.1,82.5,115.2,79.6,117.2,76.7z M100.7,76c1.3-1.7,2.5-3.4,3.8-5.2c2,0,4,0.1,5.9,0.1c1.2,1.7,2.4,3.3,3.7,5
		c-2.2,3.1-4.4,6.1-6.7,9.2C105.2,82.1,103,79.1,100.7,76z"/>
</g>
<path id="XMLID_4_" class="st5" d="M677.4,166.7c-1.4-2.2-3.1-4.2-4.7-6.2c-1.3-1.7-2.3-3.5-2.9-5.4c-0.4-1.2-0.5-2.2-0.6-4.2
	c-0.1-1.7-0.2-3.8-0.2-6.4h0V37.7h-24.9v106.8h0c0,2.3,0,4.5,0,6.8c0,2.6,0.3,5.2,1.1,7.7c1.2,3.9,3.1,7.4,6.4,9.9
	c1.1,0.8,2.2,1.7,3.4,2.5c6.2,4,12.9,4.8,19.9,2.4C678.5,172.5,679.3,169.8,677.4,166.7z"/>
</svg>
