<?xml version="1.0" encoding="utf-8"?>
<!-- Generator: Adobe Illustrator 19.0.0, SVG Export Plug-In . SVG Version: 6.00 Build 0)  -->
<svg version="1.1" id="Layer_1" xmlns="http://www.w3.org/2000/svg" xmlns:xlink="http://www.w3.org/1999/xlink" x="0px" y="0px"
	 viewBox="0 0 210 210"   xml:space="preserve">
<style type="text/css">
	.st0{fill:#013A51;}
	.st1{fill:#013A51;}
	.st2{fill:#013A51;}
	.st3{fill:#013A51;}
	.st4{fill:#013A51;}
	.st5{fill:#013A51;}
	.st6{fill:#013A51;}
	.st7{fill:#FFFFFF;}
</style>
<circle id="XMLID_9_" class="st6" cx="106.2" cy="105.2" r="91.1"/>
<path id="XMLID_14_" class="st5" d="M25.5,147.6c15.3,28.9,45.6,48.7,80.6,48.7c50.3,0,91.1-40.8,91.1-91.1
	c0-14.7-3.5-28.5-9.6-40.8L25.5,147.6z"/>
<g id="XMLID_170_">
	<path id="XMLID_176_" class="st7" d="M80,109.6c-4.1-13.7-8.2-27.4-12.4-41c-4.2,13.7-8.3,27.4-12.5,41.1c-0.7,1.6-1,3.3-1,5.1
		c0,7.3,6,13.2,13.5,13.2c7.4,0,13.5-5.9,13.5-13.2C81.1,112.9,80.7,111.2,80,109.6z M76.8,111.2c-6.1,0-12.3,0-18.4,0
		c-0.3,0-0.5-0.3-0.4-0.6c3.1-10.1,6.2-20.1,9.3-30.2c0.1-0.4,0.8-0.4,0.9,0l9.1,30.2C77.3,110.9,77.1,111.2,76.8,111.2z"/>
	<path id="XMLID_172_" class="st7" d="M159.6,110.1c-4.1-13.7-8.2-27.4-12.4-41c-4.2,13.7-8.3,27.4-12.5,41.1c-0.7,1.6-1,3.3-1,5.1
		c0,7.3,6,13.2,13.5,13.2c7.4,0,13.5-5.9,13.5-13.2C160.6,113.4,160.3,111.7,159.6,110.1z M156.4,111.7c-6.1,0-12.3,0-18.4,0
		c-0.3,0-0.5-0.3-0.4-0.6c3.1-10.1,6.2-20.1,9.3-30.2c0.1-0.4,0.8-0.4,0.9,0l9.1,30.2C156.9,111.4,156.7,111.7,156.4,111.7z"/>
	<path id="XMLID_181_" class="st7" d="M117.2,76.7c10-2.5,20.1-4.9,30.1-7.4c-1.2-2.6-2.5-5.2-3.7-7.7c-10.8,2.1-21.5,4.2-32.3,6.2
		c-2.5,0-4.9,0-7.4,0c-10.5-2-21-4-31.5-6c-1.7,2.5-3.3,5-5,7.5c10.2,2.5,20.3,5,30.5,7.5c2,2.9,4,5.7,6,8.6
		c-3.2,20.3-6.5,40.7-9.7,61c4.4,8.3,8.8,16.7,13.3,25c4.5-8.3,8.9-16.7,13.4-25c-3.3-20.3-6.6-40.7-9.8-61
		C113.1,82.5,115.2,79.6,117.2,76.7z M100.7,76c1.3-1.7,2.5-3.4,3.8-5.2c2,0,4,0.1,5.9,0.1c1.2,1.7,2.4,3.3,3.7,5
		c-2.2,3.1-4.4,6.1-6.7,9.2C105.2,82.1,103,79.1,100.7,76z"/>
</g>
</svg>
