<?xml version="1.0" encoding="utf-8"?>
<!-- Generator: Adobe Illustrator 19.0.0, SVG Export Plug-In . SVG Version: 6.00 Build 0)  -->
<svg version="1.1" id="Layer_1" xmlns="http://www.w3.org/2000/svg" xmlns:xlink="http://www.w3.org/1999/xlink" x="0px" y="0px"
	 viewBox="0 0 512 512" style="enable-background:new 0 0 512 512;" xml:space="preserve">
<style type="text/css">
	.st0{fill:#013A51;}
	.st1{fill:#013A51;}
	.st2{fill:#FFFFFF;}
</style>
<g id="all">
	<circle id="full-circle" class="st0" cx="256" cy="256" r="221.1"/>
	<path id="half-circle" class="st1" d="M60.3,358.9c37,70.3,110.8,118.1,195.7,118.1c122.1,0,221.1-99,221.1-221.1
		c0-35.6-8.4-69.3-23.4-99.1L60.3,358.9z"/>
	<g id="XMLID_170_">
		<path id="XMLID_176_" class="st2" d="M192.5,266.7c-10-33.2-20-66.4-30-99.6c-10.1,33.2-20.2,66.5-30.3,99.7
			c-1.6,3.8-2.5,7.9-2.5,12.3c0,17.7,14.6,32,32.7,32c18,0,32.7-14.3,32.7-32C195.1,274.7,194.2,270.5,192.5,266.7z M184.7,270.6
			c-14.9,0-29.8,0-44.6,0c-0.8,0-1.3-0.7-1.1-1.5c7.5-24.4,15-48.9,22.5-73.3c0.3-1.1,1.9-1.1,2.2,0l22.1,73.3
			C186,269.9,185.4,270.6,184.7,270.6z"/>
		<path id="XMLID_172_" class="st2" d="M385.7,267.9c-10-33.2-20-66.4-30-99.6c-10.1,33.2-20.2,66.5-30.3,99.7
			c-1.6,3.8-2.5,7.9-2.5,12.3c0,17.7,14.6,32,32.7,32c18,0,32.7-14.3,32.7-32C388.2,275.9,387.3,271.7,385.7,267.9z M377.8,271.8
			c-14.9,0-29.8,0-44.6,0c-0.8,0-1.3-0.7-1.1-1.5c7.5-24.4,15-48.9,22.5-73.3c0.3-1.1,1.9-1.1,2.2,0l22.1,73.3
			C379.1,271.1,378.6,271.8,377.8,271.8z"/>
		<path id="XMLID_181_" class="st2" d="M282.9,186.9c24.4-6,48.7-12,73.1-17.9c-3-6.3-6.1-12.5-9.1-18.8
			c-26.2,5.1-52.3,10.1-78.5,15.2c-6,0-12,0-18,0c-25.5-4.9-51-9.7-76.5-14.6c-4,6.1-8.1,12.1-12.1,18.2c24.7,6,49.4,12.1,74.1,18.1
			c4.9,6.9,9.8,13.9,14.7,20.8c-7.9,49.4-15.7,98.8-23.6,148.1c10.7,20.3,21.5,40.5,32.2,60.8c10.8-20.2,21.7-40.5,32.5-60.7
			c-8-49.4-15.9-98.8-23.9-148.1C272.8,200.9,277.8,193.9,282.9,186.9z M242.8,185.1c3.1-4.2,6.1-8.4,9.2-12.5
			c4.8,0.1,9.6,0.2,14.4,0.3c3,4,5.9,8.1,8.9,12.1c-5.4,7.4-10.8,14.9-16.2,22.3C253.7,199.9,248.3,192.5,242.8,185.1z"/>
	</g>
</g>
</svg>
